<svg version="1.0" xmlns="http://www.w3.org/2000/svg"
 width="128.000000pt" height="128.000000pt" viewBox="0 0 128.000000 128.000000"
 preserveAspectRatio="xMidYMid meet">

<g transform="translate(0.000000,128.000000) scale(0.100000,-0.100000)"
fill="darkred" stroke="none">
<path d="M365 1143 c-126 -74 -236 -138 -244 -142 -10 -6 11 -23 75 -61 49
-29 94 -53 99 -53 11 0 283 157 297 171 5 5 7 56 6 113 l-3 105 -230 -133z"/>
<path d="M682 1168 l3 -112 150 -87 150 -87 30 17 c108 64 156 94 153 96 -4 4
-129 77 -331 193 l-158 92 3 -112z"/>
<path d="M478 902 l-148 -87 0 -175 0 -176 147 -84 c81 -47 155 -85 163 -85 8
0 82 38 163 85 l147 84 0 176 0 175 -151 88 c-83 48 -156 87 -163 86 -6 0 -77
-40 -158 -87z"/>
<path d="M70 640 c0 -154 2 -280 5 -280 3 0 46 24 95 52 l90 53 0 175 0 175
-90 53 c-49 28 -92 52 -95 52 -3 0 -5 -126 -5 -280z"/>
<path d="M1108 867 l-88 -52 0 -175 0 -175 90 -53 c49 -28 92 -52 95 -52 3 0
5 126 5 280 0 154 -3 280 -7 279 -5 0 -47 -23 -95 -52z"/>
<path d="M201 343 c-51 -30 -91 -56 -89 -58 4 -4 124 -74 331 -193 l158 -92
-3 112 -3 112 -110 63 c-60 35 -128 75 -150 88 l-40 23 -94 -55z"/>
<path d="M835 311 l-150 -87 -3 -112 -3 -112 158 92 c202 116 327 189 331 193
3 2 -45 32 -153 96 l-30 17 -150 -87z"/>
</g>
</svg>
